<?xml version="1.0" standalone="no"?><!DOCTYPE svg PUBLIC "-//W3C//DTD SVG 1.1//EN" "http://www.w3.org/Graphics/SVG/1.1/DTD/svg11.dtd"><svg t="1717339557173" class="icon" viewBox="0 0 1024 1024" version="1.1" xmlns="http://www.w3.org/2000/svg" p-id="4306" width="256" height="256" xmlns:xlink="http://www.w3.org/1999/xlink"><path d="M809.447619 108.739048h-100.985905V98.255238a58.514286 58.514286 0 0 0-58.441143-58.441143H328.118857a58.514286 58.514286 0 0 0-58.416762 58.441143v10.508191H168.69181c-44.568381 0-80.822857 40.569905-80.822858 90.502095v685.031619c0 49.90781 36.254476 90.477714 80.822858 90.477714h320.365714c13.897143 0 25.063619-11.190857 25.063619-25.039238 0-13.872762-11.190857-25.039238-25.039238-25.039238H168.69181c-16.700952 0-30.72-18.529524-30.72-40.399238V199.241143c0-21.869714 14.019048-40.399238 30.72-40.399238h101.010285v3.486476a58.514286 58.514286 0 0 0 58.441143 58.441143h322.048a58.514286 58.514286 0 0 0 58.441143-58.441143v-3.486476h101.010286c16.676571 0 30.72 18.529524 30.72 40.399238v278.479238c0 13.872762 11.166476 25.039238 25.039238 25.039238 13.848381 0 25.039238-11.190857 25.039238-25.039238V199.241143c-0.170667-49.93219-36.400762-90.502095-80.969143-90.502095z m-151.088762 53.589333c0 4.681143-3.657143 8.362667-8.338286 8.362667H328.118857a8.265143 8.265143 0 0 1-8.338286-8.362667v-64.121905c0-4.632381 3.657143-8.313905 8.362667-8.313905h322.048a8.289524 8.289524 0 0 1 8.338286 8.338286l-0.170667 64.121905z" p-id="4307" fill="#1677ff"></path><path d="M278.625524 397.238857h421.546666a25.014857 25.014857 0 1 0 0-50.078476h-421.546666c-13.848381 0-25.039238 11.190857-25.039238 25.039238 0 13.872762 11.190857 25.039238 25.039238 25.039238zM279.332571 621.714286h141.092572a25.014857 25.014857 0 1 0 0-50.078476h-141.092572c-13.848381 0-25.039238 11.190857-25.039238 25.039238 0 13.872762 11.190857 25.039238 25.039238 25.039238zM786.480762 984.210286a37.888 37.888 0 0 1-27.062857-11.215238 37.888 37.888 0 0 1-8.289524-12.385524 37.790476 37.790476 0 0 1-2.925714-14.628572v-114.834285a23.454476 23.454476 0 0 0-14.628572-4.924953c-5.339429 0-10.654476 1.657905-15.993905 4.949334v114.761142c0 5.071238-0.975238 9.947429-2.925714 14.628572a37.888 37.888 0 0 1-20.699428 20.723809 37.912381 37.912381 0 0 1-29.257143 0 37.912381 37.912381 0 0 1-20.72381-20.723809 37.912381 37.912381 0 0 1-2.925714-14.628572v-239.835428l-101.839238-101.863619a30.354286 30.354286 0 0 1-8.43581-21.455238 30.354286 30.354286 0 0 1 8.94781-21.284572 30.281143 30.281143 0 0 1 21.26019-8.97219 30.305524 30.305524 0 0 1 21.479619 8.411428l86.576762 86.576762c11.654095 9.606095 33.694476 14.433524 66.218667 14.433524 32.49981 0 52.97981-4.827429 61.44-14.433524l86.625524-86.552381a30.354286 30.354286 0 0 1 21.796571-9.532952 30.232381 30.232381 0 0 1 22.040381 8.97219 30.281143 30.281143 0 0 1 8.94781 22.040381 30.256762 30.256762 0 0 1-9.508572 21.796572l-101.888 101.863619v239.835428a37.912381 37.912381 0 0 1-11.215238 27.062858 37.839238 37.839238 0 0 1-27.062857 11.215238z m15.286857-420.888381a68.510476 68.510476 0 0 1-11.605333 38.278095 68.754286 68.754286 0 0 1-57.246476 30.598095 68.827429 68.827429 0 1 1 68.851809-68.87619z" p-id="4308" fill="#1677ff"></path></svg>